<svg xmlns="http://www.w3.org/2000/svg" width="140" height="37.248" viewBox="0 0 140 37.248">
  <defs>
    <style>
      .cls-1 {
        fill: #fff;
        font-size: 30px;
        font-family: Montserrat-Bold, Montserrat;
        font-weight: 700;
      }

      .cls-2 {
        fill: #3aff00;
      }

      .cls-3 {
        fill: #3f0;
      }
    </style>
  </defs>
  <g id="Group_1" data-name="Group 1" transform="translate(-143 -45.752)">
    <text id="Robox" class="cls-1" transform="translate(183 75)"><tspan x="0" y="0">Ro</tspan><tspan class="cls-2" y="0">box</tspan></text>
    <g id="Icon_ionic-logo-ionitron" data-name="Icon ionic-logo-ionitron" transform="translate(139.977 43.499)">
      <path id="Path_4" data-name="Path 4" class="cls-3" d="M32.934,18.928c-.19-2.4-.858-4.163-2.313-4.029a11.332,11.332,0,0,1,.612,5.063A12.731,12.731,0,0,0,30.023,14.9,13.126,13.126,0,0,0,5.449,17.972l-.8.112c-1.209.169-1.891,2.454-1.526,5.1s1.652,4.655,2.862,4.486l1.111-.155A13.127,13.127,0,0,0,31.071,23.52l.52-.028C32.66,23.316,33.124,21.3,32.934,18.928ZM6.349,18.563A6.169,6.169,0,0,1,8.4,22.437a6.439,6.439,0,0,1-.942,4.521,8.959,8.959,0,0,0,.33-4.352A9.217,9.217,0,0,0,6.349,18.563Zm12.923,8.17A1.081,1.081,0,1,1,20.3,25.594,1.085,1.085,0,0,1,19.273,26.733Zm5.7-.33a1.081,1.081,0,1,1,1.027-1.139A1.085,1.085,0,0,1,24.968,26.4Z"/>
      <path id="Path_5" data-name="Path 5" class="cls-3" d="M11.637,4.922h0a.022.022,0,0,1,.007.014h0c.007.014.014.021.021.035v.007a.407.407,0,0,0,.162.19,1.417,1.417,0,0,0,.6.211,4.478,4.478,0,0,0,.837.035,1.987,1.987,0,0,0,.2-.014c-.028-.028-.056-.063-.084-.091H13.3a3.659,3.659,0,0,1-.816-.063,1.386,1.386,0,0,1-.591-.239.65.65,0,0,1-.1-.1.315.315,0,0,1,0-.162,1.048,1.048,0,0,1,.387-.52,4.026,4.026,0,0,1,.766-.492c.063-.028.12-.063.183-.091.007-.007.021-.007.035-.014a1.736,1.736,0,0,0-.014.738A1.715,1.715,0,0,0,14.78,5.815l.281,1.709.893-.141-.281-1.709a1.73,1.73,0,0,0,.984-1.969,1.814,1.814,0,0,0-.274-.668,6.224,6.224,0,0,0-2.053.148c.077-.021.148-.049.225-.07a9.511,9.511,0,0,1,1.512-.3c.042-.007.084-.007.127-.014l.246-.021h.042a4.348,4.348,0,0,1,.759.021,2.04,2.04,0,0,1,.429.1.4.4,0,0,0-.063.225.431.431,0,0,0,.3.408h0a1.8,1.8,0,0,1-.148.2,1.827,1.827,0,0,1-.2.2c-.077.063-.162.127-.246.19l-.457.267-.021.105a.025.025,0,0,0,.014-.007l.591-.33c.084-.056.169-.113.239-.169a2.05,2.05,0,0,0,.225-.2,2.1,2.1,0,0,0,.169-.2l.021-.042a.432.432,0,0,0,.38-.422.426.426,0,0,0-.429-.429.479.479,0,0,0-.2.049,1.73,1.73,0,0,0-.577-.19,4.464,4.464,0,0,0-1.09-.042,1.049,1.049,0,0,0-.148.014.953.953,0,0,1-.141.014,1.769,1.769,0,0,0-1.315-.26,1.818,1.818,0,0,0-1.252.914c-.091.035-.183.077-.267.12-.049.021-.091.042-.141.063a4.271,4.271,0,0,0-.977.64,1.086,1.086,0,0,0-.373.584.432.432,0,0,0,.049.281A.154.154,0,0,1,11.637,4.922Z"/>
    </g>
  </g>
</svg>
